<?xml version="1.0"?>
<svg width="962.5" height="962.5" xmlns="http://www.w3.org/2000/svg">

 <g>
  <title>background</title>
  <rect fill="none" id="canvas_background" height="402" width="582" y="-1" x="-1"/>
 </g>
 <g>
  <title>Layer 1</title>
  <g id="svg_1">
   <g id="svg_2">
    <path fill="#b6e3fd" id="svg_3" d="m333.25,603.5c-4.101013,0 -8.300995,0.101013 -12.5,0.101013c-87.199997,0 -169.5,-10.200012 -231.800003,-28.700012c-32.099998,-9.5 -57.799999,-20.900024 -76.400002,-34c-2.700001,-1.900024 -5.199999,-3.799988 -7.599999,-5.700012l0,144.400024c0,51.698975 141.399995,93.599976 315.799973,93.599976c8.899017,0 17.699005,-0.099976 26.399017,-0.299988c-12.700012,-35.400024 -19.100006,-72.601013 -19.100006,-110.700012c0.001007,-19.901001 1.701019,-39.500977 5.201019,-58.700989z"/>
    <path fill="#b6e3fd" id="svg_4" d="m424.450012,429.399994c12.899994,-12.899994 26.700012,-24.601013 41.300995,-35c-44.601013,6.600006 -94,10.100006 -145,10.100006c-87.199997,0 -169.5,-10.200012 -231.799995,-28.700012c-32.100002,-9.5 -57.800003,-20.899994 -76.400005,-34c-2.700001,-1.899994 -5.199999,-3.799988 -7.6,-5.699982l0,143.799988c0,4.200012 1,8.300018 2.8,12.399017c20.499999,45.899963 152.800004,81.200012 313.000001,81.200012c6.5,0 13,-0.100037 19.398987,-0.200012c3.700012,-13.299988 8.300018,-26.5 13.800018,-39.299988c6.100983,-14.5 13.199982,-28.399017 21.300995,-41.700043c13.598999,-22.697968 30.098999,-43.798981 49.199005,-62.898987z"/>
    <path fill="#b6e3fd" id="svg_5" d="m320.75,217.199997c-87.199997,0 -169.5,-10.199997 -231.800003,-28.699997c-32.099998,-9.5 -57.799999,-20.900009 -76.400002,-34c-2.700001,-1.900009 -5.199999,-3.800003 -7.599999,-5.699997l0,113.900009l0,15l0,3.199982c0,4 0.9,8 2.5,11.800018c19.599999,46.099976 152.399995,81.799988 313.299973,81.799988c160.899017,0 293.700043,-35.700012 313.299042,-81.799988c1.599976,-3.900024 2.5,-7.800018 2.5,-11.800018l0,-3.199982l0,-15l0,-113.900009c-2.400024,2 -4.900024,3.899994 -7.600037,5.699997c-18.599976,13 -44.300964,24.400009 -76.399963,34c-62.298004,18.5 -144.598999,28.699997 -231.799011,28.699997z"/>
    <path fill="#b6e3fd" id="svg_6" d="m636.549988,93.599998c0,-5.099998 -1.400024,-10.099998 -4.099976,-15c-2.801025,-5.199997 -7,-10.199997 -12.5,-15c-42.199036,-36.999998 -160.200012,-63.599998 -299.200012,-63.599998c-139,0 -257.101013,26.6 -299.200012,63.599998c-5.5,4.800003 -9.7,9.800003 -12.5,15c-2.7,4.900002 -4.1,9.900002 -4.1,15l0,0c0,51.700005 141.399988,93.599998 315.799982,93.599998c174.399017,0 315.800018,-41.899994 315.800018,-93.599998l0,0z"/>
    <path fill="#b6e3fd" id="svg_7" d="m666.549988,361.899994c-3.099976,-0.100006 -6.198975,-0.200012 -9.400024,-0.200012c-1.897949,0 -3.79895,0 -5.599976,0.100006c-5,0.100006 -10,0.300018 -15,0.600006c-94.299011,6.399994 -176.699982,56.299988 -227.199982,129.899017c-16.700012,24.300964 -30,51.300964 -39,80.101013c-1.600006,5 -3,10.099976 -4.300018,15.199951c-1.299988,5 -2.399994,10.100037 -3.399994,15.100037c-3.899017,19.200012 -5.899017,39.099976 -5.899017,59.399963c0,38.699036 7.300018,75.600037 20.600006,109.5c43.799011,111.700012 152.59903,190.900024 279.798004,190.900024c165.900024,0 300.400024,-134.5 300.400024,-300.398987c0.099976,-162.701019 -129.400024,-295.201019 -290.999023,-300.201019zm78.598999,444.899994c-15.099976,15.900024 -35.698975,26.400024 -59.299011,30.601013l0,12c0,11 -8.899963,19.898987 -19.899963,19.898987l-10.801025,0c-11,0 -19.89801,-8.898987 -19.89801,-19.898987l0,-12.5c-13,-2.5 -25.5,-6.700012 -36.700989,-12.400024c-13.198975,-6.799988 -24.698975,-17.898987 -34.299011,-32.898987c-6.399963,-10 -11,-21.601013 -13.800964,-34.601013c-1.100037,-4.898987 -0.199036,-9.799988 2.099976,-13.799988c2.801025,-5 7.801025,-8.700012 13.900024,-9.799988l10.698975,-1.900024c2.200989,-0.398987 4.400024,-0.398987 6.400024,0c7.700989,1.200012 14.200989,6.799988 16.200989,14.700012c3,11.900024 7.099976,21.099976 12.198975,27.599976c11.400024,14.601013 30.199036,23.301025 50.301025,23.301025l0,0c3.39801,0 6.799011,-0.301025 10.198975,-0.801025c14.400024,-2.198975 27.301025,-9 36.199036,-19.198975c9.5,-10.801025 14.300964,-24.400024 14.300964,-40.400024c0,-13.5 -3.300964,-24.5 -9.899963,-32.599976c-12.100037,-14.801025 -32.799011,-21.200012 -51.5,-25.400024c-8.699036,-2 -17,-3.899963 -25.199036,-6.199951c-13.599976,-3.900024 -26.700989,-8.700012 -39.800964,-16c-13.5,-7.5 -24,-18.100037 -31.299011,-31.400024c-7.200989,-13.198975 -10.900024,-28.398987 -10.900024,-45.198975c0,-2 0.100037,-3.900024 0.100037,-5.801025c0.300964,-5.698975 1,-11.099976 2,-16.299988c1.300964,-6.200012 3.099976,-12.100037 5.5,-17.700012c5.300964,-12.398987 13.399963,-23.398987 24.099976,-32.799988c7,-6.100006 15.400024,-11.200012 24.900024,-15.100006c7.399963,-3.101013 15.5,-5.399994 24,-7l0,-16.201996c0,-2.399994 0.5,-4.799988 1.300964,-6.899994c2.39801,-6.5 8.100037,-11.300018 15,-12.600006c1.199036,-0.200012 2.39801,-0.299988 3.600037,-0.299988l10.79895,0c0.20105,0 0.400024,0 0.602051,0c10.698975,0.299988 19.29895,9.099976 19.29895,19.799988l0,16.5c17.900024,3.5 33.801025,10.5 45.801025,20.399994c12.698975,10.500031 21.900024,23.800018 27.599976,39.800018c4.199036,11.700012 -3.5,24.398987 -15.800964,26.200012l-10.5,1.599976c-9.5,1.400024 -18.699036,-4.200012 -21.699036,-13.200012c-2.5,-7.398987 -5.899963,-13.5 -10.099976,-18.200012c-9.5,-10.599976 -24.400024,-16.698975 -40.900024,-16.698975c-5,0 -9.899963,0.599976 -14.599976,1.599976c-3.099976,0.700012 -6.099976,1.600037 -9,2.700012c-8.200989,3.200012 -15.400024,7.898987 -20.900024,14c-2.599976,2.898987 -4.700989,5.898987 -6.5,9.100037c-4,7.199951 -6,15.199951 -6,24.099976c0,12.601013 3.5,23.301025 10.5,31.801025c6.199036,7.398987 14,12.599976 22.799011,16.398987c12,5.200012 25.60199,8 39,10.700012c13.5,2.699951 27.5,5.5 39.700989,10.899963c12.900024,5.700012 23.699036,12.799988 31.900024,21c8.299011,8.299988 14.698975,18.200012 19.198975,29.600037c4.400024,11.299988 6.70105,23.699951 6.70105,36.799988c0.098999,28.898987 -9.202026,53.299011 -27.603027,72.698975z"/>
   </g>
  </g>
  <g id="svg_8"/>
  <g id="svg_9"/>
  <g id="svg_10"/>
  <g id="svg_11"/>
  <g id="svg_12"/>
  <g id="svg_13"/>
  <g id="svg_14"/>
  <g id="svg_15"/>
  <g id="svg_16"/>
  <g id="svg_17"/>
  <g id="svg_18"/>
  <g id="svg_19"/>
  <g id="svg_20"/>
  <g id="svg_21"/>
  <g id="svg_22"/>
 </g>
</svg>