<?xml version="1.0"?>
<svg width="512" height="512" xmlns="http://www.w3.org/2000/svg">

 <g>
  <title>background</title>
  <rect fill="none" id="canvas_background" height="402" width="582" y="-1" x="-1"/>
 </g>
 <g>
  <title>Layer 1</title>
  <g id="svg_1">
   <path fill="#b6e3fd" id="svg_2" d="m512,480l0,32l-480,0l-32,0l0,-32l0,-480l32,0l0,480l480,0zm-64,-480l-125.968994,20.594l30.281006,37.031l-266.437988,218l20.25,24.75l266.468994,-218l30.281006,37l45.125977,-119.375zm-34.781006,182.563004l-29.218994,-35.719009l0,301.156006l64,0l0,-357.469002l-34.781006,92.032005zm-221.218994,88.905991l0,176.531006l64,0l0,-228.875l-64,52.343994zm-90.390999,73.937012l-5.609001,-6.875l0,109.468994l64,0l0,-150.375l-58.390999,47.781006zm186.390999,-152.468002l0,255.061996l64,0l0,-307.436996l-64,52.375z"/>
  </g>
  <g id="svg_3"/>
  <g id="svg_4"/>
  <g id="svg_5"/>
  <g id="svg_6"/>
  <g id="svg_7"/>
  <g id="svg_8"/>
  <g id="svg_9"/>
  <g id="svg_10"/>
  <g id="svg_11"/>
  <g id="svg_12"/>
  <g id="svg_13"/>
  <g id="svg_14"/>
  <g id="svg_15"/>
  <g id="svg_16"/>
  <g id="svg_17"/>
 </g>
</svg>