<?xml version="1.0"?>
<svg width="896.025" height="896.025" xmlns="http://www.w3.org/2000/svg">

 <g>
  <title>background</title>
  <rect fill="none" id="canvas_background" height="402" width="582" y="-1" x="-1"/>
 </g>
 <g>
  <title>Layer 1</title>
  <g id="svg_1">
   <path fill="#87cefa" d="m863.23999,382.770996l-88.758972,-14.807007c-6.45105,-26.373993 -15.857056,-51.584991 -28.107056,-75.098999l56.821045,-70.451996c12.084961,-14.889008 11.53595,-36.311996 -1.205017,-50.682007l-35.301025,-39.728989c-12.795959,-14.355003 -34.015991,-17.391006 -50.201965,-7.165009l-75.906006,47.716003c-33.385986,-23.326004 -71.203979,-40.550995 -112,-50.546005l-14.849976,-89.234997c-3.116028,-18.895 -19.467041,-32.758999 -38.661041,-32.758999l-53.197998,0c-19.154999,0 -35.561005,13.864 -38.608002,32.758999l-14.931,89.262997c-33.729004,8.258011 -65.352997,21.587997 -94.212982,39.143997l-72.188004,-51.51799c-15.557999,-11.115005 -36.927002,-9.377007 -50.504013,4.170998l-37.582993,37.609993c-13.548004,13.577011 -15.286003,34.945999 -4.141998,50.504013l51.638,72.326004c-17.391006,28.641998 -30.584,60.085999 -38.841003,93.514984l-89.742996,14.985016c-18.865989,3.115997 -32.756989,19.467987 -32.756989,38.662994l0,53.156006c0,19.192993 13.891,35.546997 32.757,38.662964l89.742992,14.985046c6.780998,27.507996 16.625008,53.783997 29.709007,78.146973l-56.561996,70.054016c-12.043999,14.875 -11.538002,36.312012 1.203003,50.669006l35.274002,39.72998c12.796997,14.382019 34.028,17.363037 50.215988,7.163025l77,-48.369995c32.580994,22.284973 69.440002,38.664001 108.993011,48.369995l14.931,89.25c3.048004,18.895996 19.453003,32.76001 38.608002,32.76001l53.197998,0c19.194,0 35.544983,-13.863037 38.661011,-32.759033l14.875,-89.25c33.307983,-8.146973 64.531006,-21.244995 93.133972,-38.5l75.195984,53.705017c15.530029,11.154968 36.915039,9.404968 50.478027,-4.186035l37.598022,-37.596985c13.531982,-13.536011 15.36499,-34.893005 4.126953,-50.479004l-53.53595,-75.05896c17.440979,-28.738037 30.703979,-60.238037 38.908997,-93.81604l88.757996,-14.820007c18.920959,-3.115967 32.755981,-19.468964 32.755981,-38.662964l0,-53.156006c-0.028015,-19.192017 -13.862976,-35.544006 -32.786011,-38.661011zm-413.819977,233.242004c-92.764008,0 -168,-75.25 -168,-168c0,-92.764008 75.235992,-168 168,-168c92.748016,0 167.998016,75.235992 167.998016,168c0,92.75 -75.25,168 -167.998016,168z" id="settings_1_"/>
  </g>
  <g id="svg_2"/>
  <g id="svg_3"/>
  <g id="svg_4"/>
  <g id="svg_5"/>
  <g id="svg_6"/>
  <g id="svg_7"/>
  <g id="svg_8"/>
  <g id="svg_9"/>
  <g id="svg_10"/>
  <g id="svg_11"/>
  <g id="svg_12"/>
  <g id="svg_13"/>
  <g id="svg_14"/>
  <g id="svg_15"/>
  <g id="svg_16"/>
 </g>
</svg>