<?xml version="1.0"?>
<svg width="433.325" height="433.324" xmlns="http://www.w3.org/2000/svg">

 <g>
  <title>background</title>
  <rect fill="none" id="canvas_background" height="402" width="582" y="-1" x="-1"/>
 </g>
 <g>
  <title>Layer 1</title>
  <g id="svg_1">
   <path fill="#87cefa" id="svg_2" d="m353.97699,64.246002c-19.070984,-23.861004 -68.608978,-64.246002 -133.306992,-64.246002c-43.259003,0 -84.421997,18.086 -122.344002,53.751999c-0.064995,0.063 -0.128998,0.125 -0.190994,0.189003c-36.980003,38.042999 -32.148003,73.183998 -26.028,117.698997c0.376999,2.738007 0.757996,5.514008 1.137001,8.332001c1.014,7.565994 -5.607002,19.235992 -12.012005,30.520996c-9.621998,16.959 -19.571999,34.494003 -7.415997,42.776001c20.770996,14.158005 24.379997,42.021011 27.872002,68.978989c0.828995,6.402008 1.687996,13.022003 2.760994,19.459015c1.850006,11.104004 11.219002,16.502014 28.640999,16.502014c7.747002,0 16.020996,-0.957001 24.027008,-1.883026c6.860992,-0.792999 13.343002,-1.540985 18.529999,-1.540985c2.899994,0 5.164993,0.229004 6.925003,0.707001c20.932999,5.673981 39.220993,47.997986 45.830002,73.346008c0.537003,2.057983 2.121002,3.677002 4.166,4.255981c0.541,0.153992 1.091995,0.229004 1.639999,0.229004c1.522003,0 3.012009,-0.578003 4.143997,-1.65799l107.291,-102.39502c1.658997,-1.585999 2.270996,-3.97998 1.571014,-6.167999c-9.473022,-29.639984 10.212982,-58.565979 27.586975,-84.100983c7.581024,-11.141006 14.741028,-21.661011 19.639008,-32.025009c22.589996,-47.809998 6.316986,-109.220001 -20.463013,-142.729996zm-195.026993,122.440002l-4.653992,2.582993c-0.299011,0.167007 -0.636002,0.272003 -0.973007,0.272003c-0.188004,0 -0.371994,-0.024002 -0.554993,-0.078003c-0.513,-0.145996 -0.945999,-0.514999 -1.201004,-0.983994c-1.326004,-2.41301 -2.309006,-4.305008 -3.188995,-6.115997c-1.313004,-2.718002 -2.376999,-5.518005 -3.244003,-7.902008c-1.688004,-4.649002 -2.921997,-9.793991 -3.880005,-16.171005l-0.130005,-0.862991c-0.077988,-0.531006 0.059006,-1.076004 0.382004,-1.503998c0.324005,-0.429001 0.807999,-0.712006 1.343002,-0.783005l6.468994,-0.843002c0.535004,-0.065002 1.074005,0.080002 1.496002,0.415009c0.424011,0.325989 0.695007,0.821991 0.755005,1.353989c0.492996,4.450012 1.205994,9.685013 2.776001,14.725021c0.975998,3.125992 1.878998,5.612991 2.839996,7.807999c0.5,1.138 1.044998,2.354996 1.63501,3.541l0.950989,1.901993c0.477997,0.959 0.115005,2.126999 -0.820999,2.643997zm22.026001,-95.533005c-0.05899,0.530998 -0.332993,1.021004 -0.755997,1.348999c-2.983002,2.337997 -6.837997,5.492004 -10.195007,9.237999c-3.806992,4.242004 -6.858994,8.440002 -9.334991,12.838005c-2.727997,4.839996 -4.850006,9.801994 -6.313004,14.742996c-0.046005,0.152008 -0.222,0.830002 -0.436996,1.636002c-0.201004,0.753006 -0.428009,1.617004 -0.611008,2.289993c-0.396988,1.471008 -0.712997,2.637009 -2.259995,2.637009c-0.005005,0 -0.009995,0 -0.016006,0c-0.127991,-0.001007 -0.257996,-0.013 -0.384995,-0.03801l-7.261993,-1.460999c-0.522003,-0.110001 -0.980011,-0.414993 -1.275009,-0.860992c-0.292999,-0.443008 -0.399002,-0.985001 -0.291992,-1.513c0.365997,-1.776001 0.802002,-3.852005 1.324997,-5.904999c0.75,-2.943001 1.722992,-5.799004 2.490005,-7.957001c1.825989,-5.152 4.417999,-10.393005 7.704987,-15.581001c2.672012,-4.218002 5.754013,-8.246002 9.154007,-11.980003c3.134995,-3.447998 6.526993,-6.417999 9.134995,-8.619995c0.410004,-0.352005 0.94101,-0.518005 1.479004,-0.467003c0.535004,0.051003 1.029007,0.313004 1.369003,0.731003l6.044998,7.43c0.337997,0.417 0.494995,0.950996 0.434998,1.490997zm66.951004,14.524002l-12.641998,52.530991c1.369003,3.735001 1.362,7.984009 -0.354004,11.917007c-3.533005,8.110001 -12.977005,11.824005 -21.087997,8.287003c-8.113998,-3.535004 -11.824997,-12.975006 -8.290009,-21.087006c1.713013,-3.938004 4.818008,-6.828003 8.485001,-8.367004l29.87001,-45.036995c0.595993,-0.895996 1.753998,-1.239998 2.740997,-0.807999c0.992004,0.43 1.529999,1.509003 1.278,2.564003zm6.666992,-35.257004l-4.13501,11.937004c-0.177002,0.507996 -0.550995,0.923996 -1.036987,1.153999c-0.271011,0.127998 -0.564011,0.192001 -0.855011,0.192001c-0.235001,0 -0.472,-0.040001 -0.694,-0.119003c-5.186996,-1.916 -9.280991,-3.081001 -13.280991,-3.780998c-3.121002,-0.550003 -5.729004,-0.866005 -8.197998,-0.996002c-1.594009,-0.084 -3.031006,-0.154999 -4.457001,-0.154999c-0.630005,0 -1.206009,0.014 -1.761002,0.042c-2.178009,0.109001 -3.969009,0.231003 -5.626007,0.384003c-2.296005,0.207001 -4.792999,0.621994 -7.856003,1.302994c-2.105988,0.471001 -4.347,1.096001 -7.047989,1.968002c-0.182007,0.058998 -1.348007,0.488998 -2.061005,0.158005c-0.487,-0.228004 -0.871002,-0.628006 -1.061005,-1.128006l-3.667999,-9.868996c-0.188004,-0.495003 -0.166,-1.051003 0.057007,-1.535004c0.223999,-0.484001 0.62999,-0.858002 1.128998,-1.042c2.082993,-0.765999 3.843994,-1.390999 5.669998,-1.970001c2.451996,-0.778 5.128998,-1.473999 8.188004,-2.119995c4.188995,-0.895 8.405991,-1.429001 12.537003,-1.600002c1.455994,-0.063 2.919998,-0.095001 4.339996,-0.095001c4.205002,0 8.358994,0.269001 12.348999,0.813c4.824005,0.647003 9.959,1.872002 15.696991,3.735001l0.506012,0.165001c0.509995,0.167 0.931992,0.531998 1.171997,1.014c0.233002,0.482002 0.268005,1.042 0.093002,1.544998zm18.843994,30.944c-1.878998,-2.074997 -3.644989,-3.825996 -5.395996,-5.348c-0.722992,-0.628998 -2.257996,-1.923996 -2.257996,-1.928001c-0.820007,-0.693001 -0.945007,-1.912994 -0.289001,-2.758995l8.307007,-10.693001c0.324982,-0.423004 0.80899,-0.691002 1.335999,-0.759003c0.526978,-0.066002 1.062988,0.084 1.479004,0.410004c1.444,1.133995 3.121979,2.453995 4.744995,3.848c2.34198,2.008995 4.484985,4.159996 6.095978,5.806999c1.868011,1.913002 3.734009,4.074997 5.545013,6.423996c2.006989,2.604004 3.559998,4.812004 4.882996,6.952003c3.093018,4.985001 5.502014,9.701996 7.363007,14.432999c1.52301,3.871002 2.820007,8.067001 4.082001,13.198006c0.128998,0.524994 0.040985,1.076996 -0.23999,1.533997c-0.282013,0.457001 -0.738007,0.781006 -1.264008,0.903992l-15.299011,3.442001c-0.147003,0.035004 -0.296997,0.05101 -0.438995,0.05101c-0.386993,0 -0.764008,-0.111008 -1.088013,-0.320999c-0.452972,-0.294006 -0.768982,-0.749008 -0.875977,-1.278c-0.450012,-2.194 -0.882019,-4.117004 -1.322998,-5.884003c-0.557007,-2.224007 -1.365997,-4.642006 -2.557007,-7.607002c-1.880005,-4.691002 -4.416016,-9.331001 -7.764008,-14.183998c-1.30899,-1.900002 -2.909973,-3.884003 -5.042999,-6.242004zm37.652008,56.425003c-0.45401,4.104004 -1.166992,9.513992 -2.647003,14.955002c-1.615997,5.945999 -3.535004,11.11499 -5.876984,15.79599l-1.348999,2.712006c-0.239014,0.479996 -0.664001,0.846008 -1.176025,1.011002c-0.200989,0.063004 -0.40799,0.095001 -0.615997,0.095001c-0.319977,0 -0.640991,-0.076996 -0.931,-0.229004l-15.77298,-8.253998c-0.499023,-0.266006 -0.863007,-0.720001 -1.007996,-1.261993c-0.143005,-0.548004 -0.051025,-1.126007 0.253998,-1.601013c2.123993,-3.297989 4.852997,-9.377991 5.835999,-13.011993c0.178986,-0.647003 0.356995,-1.294998 0.53598,-1.940994c0.574005,-2.059006 1.117004,-4.01001 1.532013,-6.026001l0.890991,-4.557999c0.197021,-1.018005 1.141998,-1.71701 2.173004,-1.609009l16.369995,1.705002c0.531006,0.063004 1.020996,0.326004 1.354004,0.740997s0.488007,0.949005 0.431,1.477005z"/>
  </g>
  <g id="svg_3"/>
  <g id="svg_4"/>
  <g id="svg_5"/>
  <g id="svg_6"/>
  <g id="svg_7"/>
  <g id="svg_8"/>
  <g id="svg_9"/>
  <g id="svg_10"/>
  <g id="svg_11"/>
  <g id="svg_12"/>
  <g id="svg_13"/>
  <g id="svg_14"/>
  <g id="svg_15"/>
  <g id="svg_16"/>
  <g id="svg_17"/>
 </g>
</svg>