<?xml version="1.0"?>
<svg width="959.759" height="959.76" xmlns="http://www.w3.org/2000/svg">

 <g>
  <title>background</title>
  <rect fill="none" id="canvas_background" height="402" width="582" y="-1" x="-1"/>
 </g>
 <g>
  <title>Layer 1</title>
  <g id="svg_1">
   <path fill="#87cefa" id="svg_2" d="m239.897995,953.698975l307.200027,-308.599976c12.601013,-12.600037 3.601013,-34.100037 -14.200012,-34.100037l-24.5,0c-16.699005,0 -26.100006,-19.300964 -15.699005,-32.399963l162.899017,-205.400024c10.399963,-13.100006 1.101013,-32.399994 -15.700012,-32.399994l-81.898987,0c-16.5,0 -25.900024,-18.800018 -16,-32l208.098999,-276.798981c9.900024,-13.200001 0.5,-32 -16,-32l-329.100006,0c-7.600983,0 -14.600983,4.3 -17.899994,11.1l-160.900009,325.500006c-6.599991,13.299988 3.100006,28.899994 17.900009,28.899994l74.200012,0c14.799988,0 24.5,15.600006 17.899994,28.899994l-110.000015,222.600006c-6.599991,13.301025 3.100006,28.900024 17.900009,28.900024l69.899994,0c14.800018,0 24.399017,15.399963 18,28.698975l-124.200012,256.301025c-9.900009,20.29895 16.199997,38.79895 32.099991,22.79895z"/>
  </g>
  <g id="svg_3"/>
  <g id="svg_4"/>
  <g id="svg_5"/>
  <g id="svg_6"/>
  <g id="svg_7"/>
  <g id="svg_8"/>
  <g id="svg_9"/>
  <g id="svg_10"/>
  <g id="svg_11"/>
  <g id="svg_12"/>
  <g id="svg_13"/>
  <g id="svg_14"/>
  <g id="svg_15"/>
  <g id="svg_16"/>
  <g id="svg_17"/>
 </g>
</svg>