<?xml version="1.0" encoding="iso-8859-1"?>
<!-- Generator: Adobe Illustrator 16.0.0, SVG Export Plug-In . SVG Version: 6.00 Build 0)  -->
<!DOCTYPE svg PUBLIC "-//W3C//DTD SVG 1.1//EN" "http://www.w3.org/Graphics/SVG/1.1/DTD/svg11.dtd">
<svg version="1.1" id="Capa_1" xmlns="http://www.w3.org/2000/svg" xmlns:xlink="http://www.w3.org/1999/xlink" x="0px" y="0px"
	 width="79.536px" height="79.536px" viewBox="0 0 79.536 79.536" style="enable-background:new 0 0 79.536 79.536;"
	 xml:space="preserve">
<g>
	<path style="fill:#010002;" d="M26.771,48.376c0.208,0.963,0.463,1.885,0.792,2.796H0V1.731h2.794v46.645H26.771z M37.77,25.243
		l3.801-9.031l4.069,1.714L44.107,5.683l-9.833,7.454l4.036,1.699l-4.433,10.54l-6.082-7.032l-6.348,12.07l-6.367-6.167l-7.27,16.51
		l3.233,1.421l5.223-11.855l6.11,5.911l6.133-11.653l3.931,4.544C34.005,27.56,35.797,26.239,37.77,25.243z M79.111,70.083
		l-12.649-13.93c-0.503-0.544-1.254-0.56-1.891-0.269c-1.678,2.443-3.848,4.474-6.338,5.996c-0.119,0.518-0.083,1.051,0.295,1.465
		l12.646,13.919c0.61,0.673,1.651,0.726,2.335,0.108l5.489-4.971C79.671,71.802,79.718,70.756,79.111,70.083z M65.524,43.985
		c0,1.989-0.332,3.998-1.01,5.976c-3.293,9.517-13.676,14.55-23.188,11.257c-7.55-2.61-12.275-9.662-12.275-17.228
		c0-1.976,0.318-3.982,1.002-5.965c3.293-9.512,13.675-14.553,23.193-11.26C60.786,29.367,65.524,36.43,65.524,43.985z
		 M60.574,43.985c0-5.652-3.594-10.703-8.948-12.554c-3.355-1.157-6.954-0.94-10.156,0.608c-3.18,1.548-5.588,4.254-6.74,7.604
		c-0.492,1.417-0.735,2.879-0.735,4.347c0,5.66,3.593,10.719,8.953,12.557c3.346,1.17,6.954,0.953,10.16-0.601
		c3.189-1.543,5.582-4.251,6.741-7.606C60.331,46.926,60.574,45.466,60.574,43.985z"/>
</g>
<g>
</g>
<g>
</g>
<g>
</g>
<g>
</g>
<g>
</g>
<g>
</g>
<g>
</g>
<g>
</g>
<g>
</g>
<g>
</g>
<g>
</g>
<g>
</g>
<g>
</g>
<g>
</g>
<g>
</g>
</svg>
