<?xml version="1.0"?>
<svg width="114.595" height="114.594" xmlns="http://www.w3.org/2000/svg">

 <g>
  <title>background</title>
  <rect fill="none" id="canvas_background" height="402" width="582" y="-1" x="-1"/>
 </g>
 <g>
  <title>Layer 1</title>
  <g id="svg_1">
   <g id="svg_2">
    <path fill="#b6e3fd" id="svg_3" d="m99.287003,101.796997l-7.121002,0l0,-4.834c0,-0.275002 -0.224998,-0.5 -0.5,-0.5c-0.276001,0 -0.5,0.224998 -0.5,0.5l0,4.834l-9,0l0,-4.834c0,-0.275002 -0.224998,-0.5 -0.5,-0.5c-0.276001,0 -0.5,0.224998 -0.5,0.5l0,4.834l-9,0l0,-4.834c0,-0.275002 -0.224998,-0.5 -0.5,-0.5c-0.276001,0 -0.5,0.224998 -0.5,0.5l0,4.834l-8.999996,0l0,-4.834c0,-0.275002 -0.225002,-0.5 -0.5,-0.5c-0.276001,0 -0.5,0.224998 -0.5,0.5l0,4.834l-9,0l0,-4.834c0,-0.275002 -0.224003,-0.5 -0.5,-0.5c-0.276001,0 -0.5,0.224998 -0.5,0.5l0,4.834l-9,0l0,-4.834c0,-0.275002 -0.224003,-0.5 -0.5,-0.5c-0.276001,0 -0.5,0.224998 -0.5,0.5l0,4.834l-9,0l0,-4.834c0,-0.275002 -0.224001,-0.5 -0.500002,-0.5c-0.275999,0 -0.5,0.224998 -0.5,0.5l0,4.834l-9,0l0,-4.834c0,-0.275002 -0.223999,-0.5 -0.5,-0.5c-0.275999,0 -0.5,0.224998 -0.5,0.5l0,4.834l-18.166002,0l0,-11.333l4.016,0c0.276,0 0.5,-0.223999 0.5,-0.5s-0.224,-0.5 -0.5,-0.5l-4.016,0l0,-9l4.016,0c0.276,0 0.5,-0.223999 0.5,-0.5s-0.224,-0.5 -0.5,-0.5l-4.016,0l0,-9l4.016,0c0.276,0 0.5,-0.223999 0.5,-0.5s-0.224,-0.5 -0.5,-0.5l-4.016,0l0,-9l4.016,0c0.276,0 0.5,-0.223999 0.5,-0.5s-0.224,-0.5 -0.5,-0.5l-4.016,0l0,-9l4.016,0c0.276,0 0.5,-0.223999 0.5,-0.5s-0.224,-0.5 -0.5,-0.5l-4.016,0l0,-9l4.016,0c0.276,0 0.5,-0.223999 0.5,-0.5s-0.224,-0.5 -0.5,-0.5l-4.016,0l0,-9l4.016,0c0.276,0 0.5,-0.223999 0.5,-0.5s-0.224,-0.5 -0.5,-0.5l-4.016,0l0,-9l4.016,0c0.276,0 0.5,-0.223999 0.5,-0.5s-0.224,-0.5 -0.5,-0.5l-4.016,0l0,-8.167c0,-0.828 -0.672,-1.5 -1.5,-1.5c-0.828,0 -1.5,0.672 -1.5,1.5l0,92c0,0.828003 0.672,1.5 1.5,1.5l97.787003,0c0.828003,0 1.5,-0.671997 1.5,-1.5s-0.672005,-1.5 -1.5,-1.5z"/>
    <rect fill="#b6e3fd" id="svg_4" height="67.795" width="10.25" y="23.4" x="15.644"/>
    <path fill="#b6e3fd" id="svg_5" d="m47.644001,55.306c-1.341999,-1.754002 -2.43,-3.640999 -3.262001,-5.611l-6.987999,0l0,41.5l10.25,0l0,-35.889z"/>
    <path fill="#b6e3fd" id="svg_6" d="m69.144997,65.403c-0.332001,0.014 -0.664001,0.035004 -0.996002,0.035004c-3.217995,0 -6.34,-0.590004 -9.253998,-1.705002l0,27.460999l10.25,0l0,-25.791z"/>
    <path fill="#b6e3fd" id="svg_7" d="m91.644997,71.570999l-9.862999,-10.007999c-0.126999,0.077999 -0.260002,0.146 -0.387001,0.221001l0,29.41l10.25,0l0,-19.623001z"/>
    <path fill="#b6e3fd" id="svg_8" d="m113.750999,81.944l-27.677002,-28.083c6.940002,-8.952 6.321999,-21.913 -1.894997,-30.129c-8.906006,-8.907 -23.400002,-8.907 -32.309002,0c-8.905998,8.907999 -8.905998,23.4 0,32.308996c8.216999,8.216999 21.175999,8.834003 30.130001,1.895l27.677002,28.081001c1.125,1.125 2.946999,1.125 4.071999,0.000999c1.126999,-1.125 1.126999,-2.948997 0.001999,-4.073997zm-33.641998,-29.976002c-6.662003,6.661999 -17.502003,6.663002 -24.163998,0c-6.662003,-6.660999 -6.661003,-17.500999 0,-24.162001c6.661999,-6.660999 17.500996,-6.663 24.163998,0c6.662003,6.661001 6.662003,17.501001 0,24.162001z"/>
    <path fill="#b6e3fd" id="svg_9" d="m68.859001,37.443001c-2.612999,-1.081001 -3.369003,-1.735001 -3.369003,-2.918999c0,-0.945999 0.693001,-2.052002 2.645004,-2.052002c1.836998,0 2.992996,0.660999 3.487,0.943001c0.125999,0.073002 0.278,0.084999 0.417,0.036999c0.138,-0.049999 0.246002,-0.155998 0.298996,-0.292999l0.742004,-1.959999c0.086998,-0.228001 -0.003998,-0.485001 -0.215004,-0.608c-1.062996,-0.619001 -2.247993,-0.974001 -3.607994,-1.077l0,-2.405001c0,-0.276001 -0.223999,-0.5 -0.5,-0.5l-1.838005,0c-0.276001,0 -0.5,0.223999 -0.5,0.5l0,2.583c-2.734997,0.604 -4.477997,2.603001 -4.477997,5.188c0,3.118999 2.503998,4.533001 5.202995,5.595001c2.159004,0.872997 3.039001,1.761997 3.039001,3.063999c0,1.438999 -1.217995,2.405998 -3.027,2.405998c-1.399994,0 -2.855995,-0.433998 -3.993996,-1.189999c-0.127003,-0.085999 -0.287003,-0.105999 -0.434002,-0.059002c-0.146999,0.047001 -0.263,0.161003 -0.313,0.306004l-0.711998,1.984997c-0.075001,0.211002 -0.002003,0.446003 0.181,0.576c1.039997,0.742001 2.695999,1.264 4.326996,1.377003l0,2.515999c0,0.276001 0.225006,0.5 0.5,0.5l1.868004,0c0.276001,0 0.5,-0.223999 0.5,-0.5l0,-2.671001c2.819,-0.631001 4.685997,-2.778 4.685997,-5.453999c-0.000999,-2.727001 -1.469002,-4.488003 -4.905998,-5.888z"/>
   </g>
  </g>
  <g id="svg_10"/>
  <g id="svg_11"/>
  <g id="svg_12"/>
  <g id="svg_13"/>
  <g id="svg_14"/>
  <g id="svg_15"/>
  <g id="svg_16"/>
  <g id="svg_17"/>
  <g id="svg_18"/>
  <g id="svg_19"/>
  <g id="svg_20"/>
  <g id="svg_21"/>
  <g id="svg_22"/>
  <g id="svg_23"/>
  <g id="svg_24"/>
 </g>
</svg>