<?xml version="1.0"?>
<svg width="612" height="612" xmlns="http://www.w3.org/2000/svg">

 <g>
  <title>background</title>
  <rect fill="none" id="canvas_background" height="402" width="582" y="-1" x="-1"/>
 </g>
 <g>
  <title>Layer 1</title>
  <g id="svg_1">
   <g id="_x36__30_">
    <g id="svg_2">
     <path fill="#b6e3fd" id="svg_3" d="m331.684998,425.377991c-7.477997,7.479004 -7.477997,19.583984 0,27.042999c7.479004,7.477997 19.583984,7.477997 27.042999,0l131.942993,-131.962006c3.979004,-3.979004 5.681,-9.276001 5.411987,-14.479004c0.269012,-5.221008 -1.43399,-10.498993 -5.411987,-14.47699l-131.942993,-131.942993c-7.459015,-7.477997 -19.584015,-7.477997 -27.042999,0c-7.477997,7.477997 -7.477997,19.584 0,27.041992l100.272003,100.272003l-412.832001,0c-10.557,0.001007 -19.125,8.569 -19.125,19.126007c0,10.557007 8.568,19.125 19.125,19.125l412.832001,0l-100.272003,100.252991zm203.815002,-387.127991l-382.5,0c-42.247002,0 -76.5,34.252998 -76.5,76.5l0,76.5l38.25,0l0,-76.5c0,-21.113998 17.117004,-38.25 38.25,-38.25l382.5,0c21.132996,0 38.25,17.136002 38.25,38.25l0,382.5c0,21.114014 -17.117004,38.25 -38.25,38.25l-382.5,0c-21.132996,0 -38.25,-17.117004 -38.25,-38.25l0,-76.5l-38.25,0l0,76.5c0,42.247009 34.252998,76.5 76.5,76.5l382.5,0c42.247009,0 76.5,-34.252991 76.5,-76.5l0,-382.5c0,-42.247002 -34.252991,-76.5 -76.5,-76.5z"/>
    </g>
   </g>
  </g>
  <g id="svg_4"/>
  <g id="svg_5"/>
  <g id="svg_6"/>
  <g id="svg_7"/>
  <g id="svg_8"/>
  <g id="svg_9"/>
  <g id="svg_10"/>
  <g id="svg_11"/>
  <g id="svg_12"/>
  <g id="svg_13"/>
  <g id="svg_14"/>
  <g id="svg_15"/>
  <g id="svg_16"/>
  <g id="svg_17"/>
  <g id="svg_18"/>
 </g>
</svg>