<?xml version="1.0"?>
<svg width="642" height="482" xmlns="http://www.w3.org/2000/svg">

 <g>
  <title>background</title>
  <rect fill="none" id="canvas_background" height="482" width="642" y="-1" x="-1"/>
 </g>
 <g>
  <title>Layer 1</title>
  <g stroke="null" id="svg_1">
   <g stroke="null" id="news">
    <path stroke="null" id="svg_2" fill="#87cefa" d="m553.962219,-2.666686l-406.086182,0c-30.585678,0 -55.375389,20.186055 -55.375389,45.125308l0,30.083538l-18.458458,0c-30.585674,0 -55.375387,20.186058 -55.375387,45.125313l0,300.835396c0,33.227264 33.059099,60.167084 73.833845,60.167084l443.003075,0c40.77478,0 73.833862,-26.939819 73.833862,-60.167084l0,-376.044247c0,-24.939253 -24.808167,-45.125308 -55.375366,-45.125308zm18.458435,421.169555c0,16.576019 -16.575684,30.083557 -36.916931,30.083557l-443.003075,0c-20.35968,0 -36.916924,-13.507538 -36.916924,-30.083557l0,-300.835396c0,-8.303055 8.269394,-15.041771 18.458466,-15.041771l18.458458,0l0,300.835388c0,8.318115 8.250931,15.041779 18.458466,15.041779s18.458458,-6.723663 18.458458,-15.041779l0,-361.002468c0,-8.303059 8.269394,-15.041769 18.458466,-15.041769l406.086182,0c10.170593,0 18.458435,6.73871 18.458435,15.041769l0,376.044247z"/>
    <path stroke="null" id="svg_3" fill="#87cefa" d="m378.569885,192.951538l147.667664,0c5.113037,0 9.229248,-3.369354 9.229248,-7.520889s-4.116211,-7.520889 -9.229248,-7.520889l-147.667664,0c-5.07608,0 -9.229248,3.369354 -9.229248,7.520889s4.153168,7.520889 9.229248,7.520889z"/>
    <path stroke="null" id="svg_4" fill="#87cefa" d="m378.569885,147.826218l147.667664,0c5.113037,0 9.229248,-3.369354 9.229248,-7.520874s-4.116211,-7.520889 -9.229248,-7.520889l-147.667664,0c-5.07608,0 -9.229248,3.369354 -9.229248,7.520889s4.153168,7.520874 9.229248,7.520874z"/>
    <path stroke="null" id="svg_5" fill="#87cefa" d="m378.569885,102.700912l147.667664,0c5.113037,0 9.229248,-3.369354 9.229248,-7.520882s-4.116211,-7.520889 -9.229248,-7.520889l-147.667664,0c-5.07608,0 -9.229248,3.369362 -9.229248,7.520889s4.153168,7.520882 9.229248,7.520882z"/>
    <path stroke="null" id="svg_6" fill="#87cefa" d="m323.231415,403.521271l-147.667679,0c-5.094543,0 -9.229233,3.384399 -9.229233,7.520874c0,4.166595 4.134689,7.520905 9.229233,7.520905l147.667679,0c5.07608,0 9.229248,-3.354309 9.229248,-7.520905c0,-4.136475 -4.134705,-7.520874 -9.229248,-7.520874z"/>
    <path stroke="null" id="svg_7" fill="#87cefa" d="m323.231415,358.395966l-147.667679,0c-5.094543,0 -9.229233,3.384399 -9.229233,7.520874c0,4.166565 4.134689,7.520874 9.229233,7.520874l147.667679,0c5.07608,0 9.229248,-3.354309 9.229248,-7.520874c0,-4.136475 -4.134705,-7.520874 -9.229248,-7.520874z"/>
    <path stroke="null" id="svg_8" fill="#87cefa" d="m323.231415,313.27066l-147.667679,0c-5.094543,0 -9.229233,3.384399 -9.229233,7.520874c0,4.166565 4.134689,7.520874 9.229233,7.520874l147.667679,0c5.07608,0 9.229248,-3.354309 9.229248,-7.520874c0,-4.136475 -4.134705,-7.520874 -9.229248,-7.520874z"/>
    <path stroke="null" id="svg_9" fill="#87cefa" d="m526.274475,403.521271l-147.667664,0c-5.113007,0 -9.229218,3.384399 -9.229218,7.520874c0,4.166595 4.116211,7.520905 9.229218,7.520905l147.667664,0c5.076111,0 9.229248,-3.354309 9.229248,-7.520905c0,-4.136475 -4.153137,-7.520874 -9.229248,-7.520874z"/>
    <path stroke="null" id="svg_10" fill="#87cefa" d="m526.274475,358.395966l-147.667664,0c-5.113007,0 -9.229218,3.384399 -9.229218,7.520874c0,4.166565 4.116211,7.520874 9.229218,7.520874l147.667664,0c5.076111,0 9.229248,-3.354309 9.229248,-7.520874c0,-4.136475 -4.153137,-7.520874 -9.229248,-7.520874z"/>
    <path stroke="null" id="svg_11" fill="#87cefa" d="m526.274475,313.27066l-147.667664,0c-5.113007,0 -9.229218,3.384399 -9.229218,7.520874c0,4.166565 4.116211,7.520874 9.229218,7.520874l147.667664,0c5.076111,0 9.229248,-3.354309 9.229248,-7.520874c0,-4.136475 -4.153137,-7.520874 -9.229248,-7.520874z"/>
    <path stroke="null" id="svg_12" fill="#87cefa" d="m526.274475,223.02002l-350.710739,0c-5.094543,0 -9.229233,3.36937 -9.229233,7.520889s4.134689,7.520889 9.229233,7.520889l350.710739,0c5.076111,0 9.229248,-3.369354 9.229248,-7.520889s-4.153137,-7.520889 -9.229248,-7.520889z"/>
    <path stroke="null" id="svg_13" fill="#87cefa" d="m526.274475,268.145325l-350.710739,0c-5.094543,0 -9.229233,3.384399 -9.229233,7.520905c0,4.166565 4.134689,7.520874 9.229233,7.520874l350.710739,0c5.076111,0 9.229248,-3.354309 9.229248,-7.520874c0,-4.136505 -4.153137,-7.520905 -9.229248,-7.520905z"/>
    <path stroke="null" id="svg_14" fill="#87cefa" d="m184.792969,192.876328l129.209229,0c10.20752,0 18.458466,-6.723663 18.458466,-15.041779l0,-105.232216c0,-8.3181 -8.250946,-15.041771 -18.458466,-15.041771l-129.209229,0c-10.207535,0 -18.458466,6.723671 -18.458466,15.041771l0,105.232216c0,8.303055 8.250931,15.041779 18.458466,15.041779zm18.45845,-105.292397l92.292313,0l0,75.208855l-92.292313,0l0,-75.208855z"/>
   </g>
  </g>
  <g id="svg_15"/>
  <g id="svg_16"/>
  <g id="svg_17"/>
  <g id="svg_18"/>
  <g id="svg_19"/>
  <g id="svg_20"/>
  <g id="svg_21"/>
  <g id="svg_22"/>
  <g id="svg_23"/>
  <g id="svg_24"/>
  <g id="svg_25"/>
  <g id="svg_26"/>
  <g id="svg_27"/>
  <g id="svg_28"/>
  <g id="svg_29"/>
 </g>
</svg>