<?xml version="1.0"?>
<svg width="482" height="482" xmlns="http://www.w3.org/2000/svg">

 <g>
  <title>background</title>
  <rect fill="none" id="canvas_background" height="484" width="484" y="-1" x="-1"/>
 </g>
 <g>
  <title>Layer 1</title>
  <g stroke="null" id="svg_1">
   <g stroke="null" id="news">
    <path stroke="null" id="svg_2" fill="#87cefa" d="m429.50296,-2.666686l-311.668808,0c-23.474335,0 -42.500298,19.570968 -42.500298,43.750301l0,29.166866l-14.166759,0c-23.474331,0 -42.500292,19.570969 -42.500292,43.750298l0,291.668686c0,32.214783 25.372667,58.33371 56.667051,58.33371l340.002327,0c31.294403,0 56.667053,-26.118927 56.667053,-58.33371l0,-364.58585c0,-24.179333 -19.040131,-43.750301 -42.500275,-43.750301zm14.166748,408.33615c0,16.070923 -12.721741,29.16687 -28.333527,29.16687l-340.002327,0c-15.625938,0 -28.333527,-13.095947 -28.333527,-29.16687l0,-291.668686c0,-8.050049 6.346714,-14.583427 14.166767,-14.583427l14.166759,0l0,291.668648c0,8.064667 6.332542,14.583466 14.166771,14.583466s14.166756,-6.518799 14.166756,-14.583466l0,-350.002384c0,-8.05006 6.34671,-14.583435 14.166771,-14.583435l311.668808,0c7.805878,0 14.166748,6.533375 14.166748,14.583435l0,364.58585z"/>
    <path stroke="null" id="svg_3" fill="#87cefa" d="m294.89035,186.990875l113.334076,0c3.924225,0 7.083405,-3.266693 7.083405,-7.291718s-3.15918,-7.291733 -7.083405,-7.291733l-113.334076,0c-3.895874,0 -7.083405,3.266693 -7.083405,7.291733s3.187531,7.291718 7.083405,7.291718z"/>
    <path stroke="null" id="svg_4" fill="#87cefa" d="m294.89035,143.240555l113.334076,0c3.924225,0 7.083405,-3.266678 7.083405,-7.291702s-3.15918,-7.291718 -7.083405,-7.291718l-113.334076,0c-3.895874,0 -7.083405,3.266693 -7.083405,7.291718s3.187531,7.291702 7.083405,7.291702z"/>
    <path stroke="null" id="svg_5" fill="#87cefa" d="m294.89035,99.490265l113.334076,0c3.924225,0 7.083405,-3.266685 7.083405,-7.29171s-3.15918,-7.291725 -7.083405,-7.291725l-113.334076,0c-3.895874,0 -7.083405,3.266693 -7.083405,7.291725s3.187531,7.29171 7.083405,7.29171z"/>
    <path stroke="null" id="svg_6" fill="#87cefa" d="m252.418396,391.144348l-113.334091,0c-3.910034,0 -7.083389,3.281281 -7.083389,7.291718c0,4.039642 3.173355,7.291718 7.083389,7.291718l113.334091,0c3.895874,0 7.083405,-3.252075 7.083405,-7.291718c0,-4.010437 -3.17337,-7.291718 -7.083405,-7.291718z"/>
    <path stroke="null" id="svg_7" fill="#87cefa" d="m252.418396,347.394073l-113.334091,0c-3.910034,0 -7.083389,3.28125 -7.083389,7.291687c0,4.039612 3.173355,7.291718 7.083389,7.291718l113.334091,0c3.895874,0 7.083405,-3.252106 7.083405,-7.291718c0,-4.010437 -3.17337,-7.291687 -7.083405,-7.291687z"/>
    <path stroke="null" id="svg_8" fill="#87cefa" d="m252.418396,303.643768l-113.334091,0c-3.910034,0 -7.083389,3.281281 -7.083389,7.291687c0,4.039612 3.173355,7.291718 7.083389,7.291718l113.334091,0c3.895874,0 7.083405,-3.252106 7.083405,-7.291718c0,-4.010406 -3.17337,-7.291687 -7.083405,-7.291687z"/>
    <path stroke="null" id="svg_9" fill="#87cefa" d="m408.252777,391.144348l-113.334076,0c-3.924225,0 -7.083374,3.281281 -7.083374,7.291718c0,4.039642 3.159149,7.291718 7.083374,7.291718l113.334076,0c3.895874,0 7.083405,-3.252075 7.083405,-7.291718c0,-4.010437 -3.187531,-7.291718 -7.083405,-7.291718z"/>
    <path stroke="null" id="svg_10" fill="#87cefa" d="m408.252777,347.394073l-113.334076,0c-3.924225,0 -7.083374,3.28125 -7.083374,7.291687c0,4.039612 3.159149,7.291718 7.083374,7.291718l113.334076,0c3.895874,0 7.083405,-3.252106 7.083405,-7.291718c0,-4.010437 -3.187531,-7.291687 -7.083405,-7.291687z"/>
    <path stroke="null" id="svg_11" fill="#87cefa" d="m408.252777,303.643768l-113.334076,0c-3.924225,0 -7.083374,3.281281 -7.083374,7.291687c0,4.039612 3.159149,7.291718 7.083374,7.291718l113.334076,0c3.895874,0 7.083405,-3.252106 7.083405,-7.291718c0,-4.010406 -3.187531,-7.291687 -7.083405,-7.291687z"/>
    <path stroke="null" id="svg_12" fill="#87cefa" d="m408.252777,216.143143l-269.168472,0c-3.910034,0 -7.083389,3.266693 -7.083389,7.291718s3.173355,7.291718 7.083389,7.291718l269.168472,0c3.895874,0 7.083405,-3.266678 7.083405,-7.291718s-3.187531,-7.291718 -7.083405,-7.291718z"/>
    <path stroke="null" id="svg_13" fill="#87cefa" d="m408.252777,259.893433l-269.168472,0c-3.910034,0 -7.083389,3.281281 -7.083389,7.291748c0,4.039612 3.173355,7.291687 7.083389,7.291687l269.168472,0c3.895874,0 7.083405,-3.252075 7.083405,-7.291687c0,-4.010468 -3.187531,-7.291748 -7.083405,-7.291748z"/>
    <path stroke="null" id="svg_14" fill="#87cefa" d="m146.167679,186.917953l99.167343,0c7.834213,0 14.166779,-6.518784 14.166779,-14.583435l0,-102.025703c0,-8.064636 -6.332565,-14.583431 -14.166779,-14.583431l-99.167343,0c-7.834229,0 -14.166763,6.518795 -14.166763,14.583431l0,102.025703c0,8.050049 6.332535,14.583435 14.166763,14.583435zm14.166763,-102.084038l70.833817,0l0,72.917168l-70.833817,0l0,-72.917168z"/>
   </g>
  </g>
  <g id="svg_15"/>
  <g id="svg_16"/>
  <g id="svg_17"/>
  <g id="svg_18"/>
  <g id="svg_19"/>
  <g id="svg_20"/>
  <g id="svg_21"/>
  <g id="svg_22"/>
  <g id="svg_23"/>
  <g id="svg_24"/>
  <g id="svg_25"/>
  <g id="svg_26"/>
  <g id="svg_27"/>
  <g id="svg_28"/>
  <g id="svg_29"/>
 </g>
</svg>