<?xml version="1.0"?>
<svg width="350" height="350" xmlns="http://www.w3.org/2000/svg">

 <g>
  <title>background</title>
  <rect fill="none" id="canvas_background" height="402" width="582" y="-1" x="-1"/>
 </g>
 <g>
  <title>Layer 1</title>
  <g id="svg_1">
   <path fill="#b6e3fd" id="svg_2" d="m175,171.173004c38.914001,0 70.462997,-38.318008 70.462997,-85.585999c0,-47.269005 -10.358002,-85.587006 -70.462997,-85.587006s-70.464996,38.318001 -70.464996,85.586998c0,47.267998 31.548996,85.586006 70.464996,85.586006z"/>
   <path fill="#b6e3fd" id="svg_3" d="m41.909,301.852997c-0.012001,-2.881989 -0.024002,-0.812012 0,0l0,0z"/>
   <path fill="#b6e3fd" id="svg_4" d="m308.084991,304.104004c0.037994,-0.789001 0.013,-5.473999 0,0l0,0z"/>
   <path fill="#b6e3fd" id="svg_5" d="m307.934998,298.397003c-1.304993,-82.34201 -12.05899,-105.804993 -94.352005,-120.656998c0,0 -11.583984,14.761002 -38.583984,14.761002s-38.586014,-14.761002 -38.586014,-14.761002c-81.394989,14.690002 -92.802994,37.805008 -94.302994,117.98201c-0.123001,6.546997 -0.18,6.890991 -0.202,6.130981c0.005001,1.424011 0.011002,4.058014 0.011002,8.651001c0,0 19.591999,39.496002 133.080006,39.496002c113.486008,0 133.080002,-39.496002 133.080002,-39.496002c0,-2.950989 0.001984,-5.002991 0.005005,-6.398987c-0.022003,0.470001 -0.06601,-0.44101 -0.149017,-5.708008z"/>
  </g>
  <g id="svg_6"/>
  <g id="svg_7"/>
  <g id="svg_8"/>
  <g id="svg_9"/>
  <g id="svg_10"/>
  <g id="svg_11"/>
  <g id="svg_12"/>
  <g id="svg_13"/>
  <g id="svg_14"/>
  <g id="svg_15"/>
  <g id="svg_16"/>
  <g id="svg_17"/>
  <g id="svg_18"/>
  <g id="svg_19"/>
  <g id="svg_20"/>
 </g>
</svg>