<?xml version="1.0"?>
<svg width="965.199" height="965.199" xmlns="http://www.w3.org/2000/svg">

 <g>
  <title>background</title>
  <rect fill="none" id="canvas_background" height="402" width="582" y="-1" x="-1"/>
 </g>
 <g>
  <title>Layer 1</title>
  <g id="svg_1">
   <path fill="#ffffff" id="svg_2" d="m263.850006,30c0,-16.6 -13.399994,-30 -30,-30l-202,0c-16.6,0 -30,13.4 -30,30l0,202.100006c0,16.600006 13.4,30 30,30l202.100006,0c16.600006,0 30,-13.399994 30,-30l0,-202.100006l-0.100006,0z"/>
   <path fill="#ffffff" id="svg_3" d="m613.549988,30c0,-16.6 -13.400024,-30 -30,-30l-202,0c-16.600006,0 -30,13.4 -30,30l0,202.100006c0,16.600006 13.399994,30 30,30l202,0c16.599976,0 30,-13.399994 30,-30l0,-202.100006z"/>
   <path fill="#ffffff" id="svg_4" d="m963.25,30c0,-16.6 -13.400024,-30 -30,-30l-202,0c-16.601013,0 -30,13.4 -30,30l0,202.100006c0,16.600006 13.398987,30 30,30l202.099976,0c16.601013,0 30,-13.399994 30,-30l0,-202.100006l-0.099976,0z"/>
   <path fill="#ffffff" id="svg_5" d="m263.850006,381.600006c0,-16.600006 -13.399994,-30 -30,-30l-202,0c-16.6,0 -30,13.399994 -30,30l0,201.999969c0,16.600037 13.4,30 30,30l202.100006,0c16.600006,0 30,-13.399963 30,-30l0,-201.999969l-0.100006,0z"/>
   <path fill="#ffffff" id="svg_6" d="m613.549988,381.600006c0,-16.600006 -13.400024,-30 -30,-30l-202,0c-16.600006,0 -30,13.399994 -30,30l0,201.999969c0,16.600037 13.399994,30 30,30l202,0c16.599976,0 30,-13.399963 30,-30l0,-201.999969z"/>
   <path fill="#ffffff" id="svg_7" d="m963.25,381.600006c0,-16.600006 -13.400024,-30 -30,-30l-202,0c-16.601013,0 -30,13.399994 -30,30l0,201.999969c0,16.600037 13.398987,30 30,30l202.099976,0c16.601013,0 30,-13.399963 30,-30l0,-201.999969l-0.099976,0z"/>
   <path fill="#ffffff" id="svg_8" d="m233.850006,703.099976l-202,0c-16.6,0 -30,13.400024 -30,30l0,202.100037c0,16.60199 13.4,30 30,30l202.100006,0c16.600006,0 30,-13.39801 30,-30l0,-202.100037c-0.100006,-16.5 -13.500015,-30 -30.100006,-30z"/>
   <path fill="#ffffff" id="svg_9" d="m583.549988,703.099976l-202,0c-16.600006,0 -30,13.400024 -30,30l0,202.100037c0,16.60199 13.399994,30 30,30l202,0c16.599976,0 30,-13.39801 30,-30l0,-202.100037c0,-16.5 -13.401001,-30 -30,-30z"/>
   <path fill="#ffffff" id="svg_10" d="m933.25,703.099976l-202,0c-16.601013,0 -30,13.400024 -30,30l0,202.100037c0,16.60199 13.398987,30 30,30l202.099976,0c16.601013,0 30,-13.39801 30,-30l0,-202.100037c-0.099976,-16.5 -13.5,-30 -30.099976,-30z"/>
  </g>
  <g id="svg_11"/>
  <g id="svg_12"/>
  <g id="svg_13"/>
  <g id="svg_14"/>
  <g id="svg_15"/>
  <g id="svg_16"/>
  <g id="svg_17"/>
  <g id="svg_18"/>
  <g id="svg_19"/>
  <g id="svg_20"/>
  <g id="svg_21"/>
  <g id="svg_22"/>
  <g id="svg_23"/>
  <g id="svg_24"/>
  <g id="svg_25"/>
 </g>
</svg>